<svg width="300" height="300" viewBox="0 0 300 300" fill="none" xmlns="http://www.w3.org/2000/svg">
<circle cx="150" cy="150" r="150" fill="#19CFED"/>
<g clip-path="url(#clip0_218_2)">
<path d="M148.513 100.736C98.8055 120.986 70.3289 132.724 69.8227 133.199C69.1582 133.832 69 134.275 69 135.477C69 136.774 69.1266 137.091 70.0441 137.85C70.6453 138.356 77.1633 142.248 84.5988 146.519L98.0777 154.271L109.816 179.742C118.106 197.682 121.871 205.466 122.504 206.067C123.232 206.763 123.738 206.953 124.782 206.953C126.554 206.953 126.428 207.08 137.186 193.348C142.027 187.178 146.045 182.147 146.171 182.178C146.266 182.21 152.563 185.817 160.125 190.184C167.687 194.582 174.427 198.41 175.059 198.758C177.243 199.866 179.363 199.391 180.217 197.556C180.502 196.955 192.05 168.763 205.877 134.907C225.463 86.9402 231 73.0499 231 72.0058C231 70.0757 229.861 68.9999 227.868 69.0316C226.697 69.0632 211.035 75.3281 148.513 100.736ZM218.186 87.7312C209.643 108.867 175.85 191.354 175.692 191.481C175.376 191.766 134.464 168.003 134.686 167.655C134.939 167.244 218.945 85.1367 219.103 85.1367C219.166 85.1367 218.755 86.3074 218.186 87.7312ZM195.404 89.0601C195.056 89.2816 173.73 102.824 148.007 119.087L101.242 148.703L90.4523 142.469C84.5355 139.052 79.7262 136.078 79.7895 135.92C79.8844 135.635 195.056 88.6488 195.721 88.6171C195.879 88.6171 195.752 88.807 195.404 89.0601ZM203.789 91.275C203.789 91.3382 186.418 108.361 165.219 129.086C139.559 154.177 126.586 167.054 126.428 167.624C126.333 168.067 125.542 173.794 124.688 180.312C123.833 186.83 123.042 192.24 122.979 192.335C122.884 192.398 122.473 191.702 122.061 190.785C121.65 189.836 117.632 181.198 113.17 171.547C108.709 161.897 105.102 153.892 105.134 153.734C105.229 153.512 203.409 91.1484 203.694 91.1484C203.757 91.1484 203.789 91.2117 203.789 91.275ZM136.395 176.135C140.096 178.287 140.476 178.603 140.096 179.078C139.843 179.362 137.407 182.463 134.654 186.007C131.902 189.519 129.592 192.367 129.529 192.272C129.37 192.114 131.554 174.964 131.807 174.11C131.902 173.92 131.996 173.73 132.091 173.73C132.155 173.73 134.085 174.806 136.395 176.135Z" fill="black"/>
<path d="M84.0293 167.782C78.4606 173.383 78.0809 174.016 78.9668 176.136C79.2832 176.863 79.7895 177.369 80.5172 177.686C82.6371 178.572 83.2699 178.192 88.8703 172.623L93.9961 167.529V165.916C93.9961 164.618 93.8379 164.175 93.1735 163.479C92.4774 162.815 92.0344 162.657 90.7371 162.657H89.1235L84.0293 167.782Z" fill="black"/>
<path d="M70.4555 181.514C69.791 182.179 69.6328 182.653 69.6328 183.855C69.6328 185.944 70.7086 187.02 72.7969 187.02C74.8852 187.02 75.9609 185.944 75.9609 183.855C75.9609 181.767 74.8852 180.691 72.7969 180.691C71.5945 180.691 71.1199 180.85 70.4555 181.514Z" fill="black"/>
<path d="M103.963 191.607C102.792 192.24 79.2516 215.654 78.6188 216.825C76.9735 219.957 80.0426 223.026 83.175 221.381C84.5356 220.653 108.171 196.796 108.551 195.721C109.627 192.841 106.652 190.183 103.963 191.607Z" fill="black"/>
<path d="M147.311 200.593C146.804 200.91 142.849 204.738 138.578 209.041C130.541 217.173 130.003 217.869 130.541 219.673C131.142 221.666 133.294 222.584 135.192 221.698C135.793 221.413 139.938 217.489 144.4 212.996L152.531 204.833V203.251C152.531 201.954 152.373 201.511 151.709 200.815C150.664 199.802 148.734 199.707 147.311 200.593Z" fill="black"/>
<path d="M70.234 225.241C68.652 226.665 68.9367 229.418 70.8035 230.399C73.05 231.601 75.6446 230.051 75.6446 227.488C75.6446 224.672 72.3856 223.311 70.234 225.241Z" fill="black"/>
<path d="M122.378 225.558C121.713 226.254 121.523 226.76 121.523 227.836C121.523 229.861 122.694 231 124.719 231C126.776 231 127.852 229.924 127.852 227.836C127.852 225.748 126.776 224.672 124.719 224.672C123.485 224.672 123.074 224.83 122.378 225.558Z" fill="black"/>
<path d="M153.892 122.884C127.219 139.812 105.387 153.765 105.387 153.892C105.387 154.113 115.512 176.104 121.777 189.551L122.884 191.924L124.561 179.426C125.479 172.56 126.238 166.896 126.238 166.896C126.27 166.864 141.394 152.057 159.904 133.99C201.353 93.4582 202.713 92.0977 202.523 92.1293C202.429 92.1293 180.533 105.988 153.892 122.884Z" fill="#5AD2E6"/>
<path d="M182.843 120.796C163.289 139.875 144.495 158.29 141.077 161.675L134.812 167.877L155.157 179.616C169.427 187.874 175.534 191.228 175.692 190.975C175.819 190.753 185.501 167.181 197.176 138.578C208.852 109.975 218.47 86.4655 218.565 86.3073C218.629 86.1808 218.629 86.0859 218.534 86.0859C218.439 86.0859 202.365 101.716 182.843 120.796Z" fill="#DFECF7"/>
<path d="M136.869 112.696C105.735 125.384 80.1059 135.793 79.9477 135.857C79.7895 135.888 84.5356 138.736 90.4524 142.185L101.242 148.418L147.532 119.119C173.003 102.982 193.886 89.7562 193.949 89.693C194.012 89.6297 193.949 89.5664 193.791 89.598C193.632 89.6297 168.035 100.008 136.869 112.696Z" fill="#DFECF7"/>
</g>
<defs>
<clipPath id="clip0_218_2">
<rect width="162" height="162" fill="white" transform="translate(69 69)"/>
</clipPath>
</defs>
</svg>
